<svg xmlns="http://www.w3.org/2000/svg" viewBox="0 0 785 290" role="img" aria-labelledby="title desc">
<title id="title">Vixora</title><desc id="desc">Vixora neon blue butterfly logo — Apps for a brighter you</desc>
<defs>
<linearGradient id="wingL1" x1="0" y1="0" x2="1" y2="1"><stop offset="0" stop-color="#A8FFFF"/><stop offset="0.35" stop-color="#45E7FF"/><stop offset="0.72" stop-color="#0F8DFF"/><stop offset="1" stop-color="#1C33FF"/></linearGradient>
<linearGradient id="wingR1" x1="1" y1="0" x2="0" y2="1"><stop offset="0" stop-color="#B5FFFF"/><stop offset="0.38" stop-color="#63F1FF"/><stop offset="0.76" stop-color="#17B3FF"/><stop offset="1" stop-color="#2B4CFF"/></linearGradient>
<linearGradient id="wingL2" x1="0" y1="0" x2="1" y2="1"><stop offset="0" stop-color="#8CFBFF"/><stop offset="0.45" stop-color="#1EDCFF"/><stop offset="0.8" stop-color="#0F82FF"/><stop offset="1" stop-color="#2234FF"/></linearGradient>
<linearGradient id="tailGrad" x1="0.2" y1="0" x2="0.8" y2="1"><stop offset="0" stop-color="#6CF5FF"/><stop offset="0.42" stop-color="#2375FF"/><stop offset="0.78" stop-color="#6A39FF"/><stop offset="1" stop-color="#D56EFF"/></linearGradient>
<linearGradient id="textGrad" x1="0" y1="0" x2="0" y2="1"><stop offset="0" stop-color="#FFFFFF"/><stop offset="1" stop-color="#EAF1FF"/></linearGradient>
<filter id="softGlow" x="-20%" y="-20%" width="140%" height="140%"><feGaussianBlur stdDeviation="4" result="blur"/><feColorMatrix in="blur" type="matrix" values="1 0 0 0 0  0 1 0 0 0  0 0 1 0 0  0 0 0 0.7 0" result="glow"/><feMerge><feMergeNode in="glow"/><feMergeNode in="SourceGraphic"/></feMerge></filter>
</defs>
<g transform="translate(35 12)" filter="url(#softGlow)">
<path d="M165 140 C126 61, 74 17, 27 19 C10 20, 5 31, 8 45 C17 86, 74 133, 163 154 Z" fill="url(#wingL1)" stroke="#BEFFFF" stroke-width="2.2"/>
<path d="M176 140 C216 60, 272 18, 318 18 C335 19, 340 30, 336 44 C327 85, 268 133, 178 154 Z" fill="url(#wingR1)" stroke="#D0FFFF" stroke-width="2.2"/>
<path d="M163 154 C123 118, 84 96, 49 100 C44 106, 48 119, 63 132 C88 151, 122 162, 158 165 Z" fill="url(#wingL2)" stroke="#A5F8FF" stroke-width="1.8"/>
<path d="M179 154 C219 118, 258 96, 293 100 C299 106, 294 119, 279 132 C255 151, 220 162, 184 165 Z" fill="url(#wingR1)" stroke="#B6FFFF" stroke-width="1.8"/>
<path d="M171 149 C161 172, 150 198, 152 219 C154 243, 168 264, 183 264 C199 264, 214 243, 216 219 C217 197, 204 173, 188 149 Z" fill="url(#tailGrad)" stroke="#E0B1FF" stroke-width="2"/>
<path d="M29 29 C60 18, 109 58, 158 144" fill="none" stroke="#F3FFFF" stroke-opacity=".55" stroke-width="4" stroke-linecap="round"/>
<path d="M317 29 C286 18, 238 58, 189 144" fill="none" stroke="#F3FFFF" stroke-opacity=".55" stroke-width="4" stroke-linecap="round"/>
</g>
<g transform="translate(390 0)">
<text x="0" y="165" font-family="Inter,Arial,Helvetica,sans-serif" font-size="122" font-weight="800" letter-spacing="-4" fill="url(#textGrad)">Vixora</text>
<text x="0" y="225" font-family="Inter,Arial,Helvetica,sans-serif" font-size="33" font-weight="400" fill="#E7EEFA" letter-spacing="-0.2">Apps for a brighter you</text>
</g>
</svg>